# xmcd
# 
# Track frame offsets:
#     183
#     17868
#     31220
#     43835
#     54618
#     69778
#     83008
#     94193
#     105590
#     118300
#     137143
#     151753
#     162023
#     173108
# 
# Disc length: 2508
# 
# Revision: 0
# Processed by: cddbd v1.5.2PL0 Copyright (c) Steve Scherf et al.
# Submitted via: BonkEnc v1.0.8
# 
DISCID=ad09ca0e
DTITLE=Divers - Country Highlights
DYEAR=0
DGENRE=Country
TTITLE0=Ballad of The Broken Arrows
TTITLE1=Another Sleepless Night
TTITLE2=I'll Need Someone To Hold Me
TTITLE3=What Are You Waitin'For
TTITLE4=Why Did You Take My Guitar
TTITLE5=Everything From Jesus To Jack Daniels
TTITLE6=Railroad Bill
TTITLE7=Rodeo Drifter
TTITLE8=Battle of New Orleans
TTITLE9=City of New Orleans
TTITLE10=Don't Know Why I Love You
TTITLE11=Rosie's Leavin
TTITLE12=I Sould Been Born In Nashville
TTITLE13=It's A Bad Night For Good Girls
EXTD=
EXTT0=
EXTT1=
EXTT2=
EXTT3=
EXTT4=
EXTT5=
EXTT6=
EXTT7=
EXTT8=
EXTT9=
EXTT10=
EXTT11=
EXTT12=
EXTT13=
PLAYORDER=
